<svg width="326" height="81" viewBox="0 0 326 81" fill="none" xmlns="http://www.w3.org/2000/svg">
<g id="logo branco">
<path id="Logo Icon" d="M38.5633 21.3718C38.1812 21.0004 37.6452 20.8315 37.1202 20.9179C36.5944 21.0039 36.1404 21.3339 35.8965 21.8076C35.0577 23.4371 33.9923 24.9346 32.7387 26.2583C32.8637 25.3022 32.9266 24.3401 32.9266 23.3756C32.9266 21.5247 32.6785 19.62 32.1891 17.7142C30.5799 11.4535 26.3603 6.15866 20.6123 3.1877C20.1122 2.92902 19.5156 2.93832 19.0231 3.21191C18.5309 3.48571 18.2084 3.98771 18.1643 4.54922C17.7162 10.2388 14.7855 15.4151 10.1194 18.7541C10.0576 18.7986 9.99625 18.8437 9.93495 18.8885C9.80807 18.9815 9.68826 19.0693 9.57652 19.143C9.55904 19.1547 9.54167 19.1666 9.52452 19.1788C6.58986 21.2799 4.16841 24.0808 2.52176 27.2794C0.848432 30.5329 0 34.0242 0 37.6561C0 39.5063 0.248029 41.4108 0.73725 43.3173C3.31897 53.3659 12.3619 60.3839 22.7279 60.3839C35.2595 60.3839 45.4545 50.1882 45.4545 37.6561C45.4545 31.4761 43.0072 25.6929 38.5633 21.3718Z" fill="white"/>
<g id="taPago">
<path d="M75.5532 49.9429C70.0675 50.2753 67.3247 48.0312 67.3247 42.0468V26.9195H75.0545V17.1948H67.3247V6.3065H56.3532V41.9636C56.3532 53.6831 63.0026 61.2468 75.5532 59.9169V49.9429Z" fill="white"/>
<path d="M124.06 38.639C124.06 26.2545 115 16.1143 102.117 16.1143C89.1506 16.1143 80.0909 26.2545 80.0909 38.639C80.0909 50.9403 89.3169 60.9143 100.621 60.9143C105.774 60.9143 110.429 59.0857 113.67 55.5117V60H124.06V38.639ZM113.088 38.7221C113.088 45.3714 108.184 50.774 102.117 50.774C96.0493 50.774 91.1455 45.5377 91.1455 38.7221C91.1455 31.6571 96.0493 26.4208 102.117 26.4208C108.184 26.4208 113.088 31.9065 113.088 38.7221Z" fill="white"/>
<path d="M176.858 22.0156C176.858 10.3792 167.549 0.9039 155.331 0.9039C143.196 0.9039 133.887 10.3792 133.887 22.0156V60H144.858V43.2104H156.162C166.968 43.2104 176.858 34.0675 176.858 22.0156ZM165.887 22.2649C165.887 28.2494 161.149 33.1533 155.331 33.1533H144.858V22.2649C144.858 16.1974 149.596 11.2935 155.331 11.2935C161.149 11.2935 165.887 16.1974 165.887 22.2649Z" fill="white"/>
<path d="M224.547 38.639C224.547 26.2545 215.487 16.1143 202.604 16.1143C189.638 16.1143 180.578 26.2545 180.578 38.639C180.578 50.9403 189.804 60.9143 201.108 60.9143C206.261 60.9143 210.916 59.0857 214.157 55.5117V60H224.547V38.639ZM213.575 38.7221C213.575 45.3714 208.671 50.774 202.604 50.774C196.536 50.774 191.632 45.5377 191.632 38.7221C191.632 31.6571 196.536 26.4208 202.604 26.4208C208.671 26.4208 213.575 31.9065 213.575 38.7221Z" fill="white"/>
<path d="M275.683 38.639C275.683 26.2545 266.623 16.1143 253.74 16.1143C240.774 16.1143 231.714 26.2545 231.714 38.639C231.714 50.9403 240.94 60.9143 252.244 60.9143C257.065 60.9143 261.47 59.252 264.712 56.0935V58.0052C264.712 65.652 261.221 70.7221 253.491 70.7221C250.499 70.7221 246.093 69.3922 244.681 65.9844H232.712C234.374 75.0442 243.184 80.9455 253.491 80.9455C267.205 80.9455 275.683 72.052 275.683 57.839V38.639ZM264.712 38.7221C264.712 45.3714 259.808 50.774 253.74 50.774C247.673 50.774 242.769 45.5377 242.769 38.7221C242.769 31.6571 247.673 26.4208 253.74 26.4208C259.808 26.4208 264.712 31.9065 264.712 38.7221Z" fill="white"/>
<path d="M304.134 16.1143C292.249 16.1143 282.607 25.839 282.607 38.639C282.607 51.439 292.249 60.9974 304.134 60.9974C316.02 60.9974 325.745 51.439 325.745 38.639C325.745 25.839 316.02 16.1143 304.134 16.1143ZM304.134 50.9403C298.316 50.9403 293.579 45.9533 293.579 38.7221C293.579 31.3247 298.316 26.1714 304.134 26.1714C309.953 26.1714 314.69 31.3247 314.69 38.7221C314.69 45.9533 309.953 50.9403 304.134 50.9403Z" fill="white"/>
</g>
</g>
</svg>
