<svg width="537" height="450" viewBox="0 0 537 450" fill="none" xmlns="http://www.w3.org/2000/svg">
<g id="undraw_booking_re_gw4j 1" clip-path="url(#clip0_25_382)">
<path id="Vector" d="M536.11 26.2832V86.8142H534.517V86.169H1.68525V86.8142H0.0923309V26.2832C0.0991712 19.3146 2.87048 12.6333 7.79805 7.70572C12.7256 2.77815 19.4069 0.0068403 26.3755 0H509.827C516.795 0.0068403 523.477 2.77815 528.404 7.70572C533.332 12.6333 536.103 19.3146 536.11 26.2832Z" fill="#2D3748"/>
<path id="Vector_2" d="M509.827 0H26.3755C19.4069 0.0068403 12.7256 2.77815 7.79805 7.70572C2.87048 12.6333 0.0991712 19.3146 0.0923309 26.2832V371.947C0.0991712 378.916 2.87048 385.597 7.79805 390.524C12.7256 395.452 19.4069 398.223 26.3755 398.23H509.827C516.795 398.223 523.477 395.452 528.404 390.524C533.332 385.597 536.103 378.916 536.11 371.947V26.2832C536.103 19.3146 533.332 12.6333 528.404 7.70572C523.477 2.77815 516.795 0.0068403 509.827 0ZM534.517 371.947C534.509 378.493 531.905 384.768 527.276 389.396C522.648 394.025 516.373 396.629 509.827 396.637H26.3755C19.8298 396.629 13.5546 394.025 8.92608 389.396C4.29757 384.768 1.6936 378.493 1.68525 371.947V26.2832C1.6936 19.7375 4.29757 13.4623 8.92608 8.83376C13.5546 4.20525 19.8298 1.60127 26.3755 1.59292H509.827C516.373 1.60127 522.648 4.20525 527.276 8.83376C531.905 13.4623 534.509 19.7375 534.517 26.2832V371.947Z" fill="white"/>
<path id="Vector_3" d="M108.411 59.3363C117.208 59.3363 124.34 52.2045 124.34 43.4071C124.34 34.6096 117.208 27.4779 108.411 27.4779C99.6135 27.4779 92.4817 34.6096 92.4817 43.4071C92.4817 52.2045 99.6135 59.3363 108.411 59.3363Z" fill="white"/>
<path id="Vector_4" d="M427.791 59.3363C436.589 59.3363 443.721 52.2045 443.721 43.4071C443.721 34.6096 436.589 27.4779 427.791 27.4779C418.994 27.4779 411.862 34.6096 411.862 43.4071C411.862 52.2045 418.994 59.3363 427.791 59.3363Z" fill="white"/>
<path id="Vector_5" d="M154.434 221.019H59.6742C55.6598 221.015 51.811 219.418 48.9723 216.579C46.1337 213.741 44.5369 209.892 44.5324 205.877V161.09C44.5369 157.076 46.1337 153.227 48.9723 150.388C51.811 147.55 55.6598 145.953 59.6742 145.948H154.434C158.449 145.953 162.297 147.55 165.136 150.388C167.975 153.227 169.571 157.076 169.576 161.09V205.877C169.571 209.892 167.975 213.741 165.136 216.579C162.297 219.418 158.449 221.015 154.434 221.019Z" fill="#FF3B4B"/>
<path id="Vector_6" d="M315.636 221.019H220.877C216.862 221.015 213.013 219.418 210.175 216.579C207.336 213.741 205.739 209.892 205.735 205.877V161.09C205.739 157.076 207.336 153.227 210.175 150.388C213.013 147.55 216.862 145.953 220.877 145.948H315.636C319.651 145.953 323.5 147.55 326.338 150.388C329.177 153.227 330.774 157.076 330.778 161.09V205.877C330.774 209.892 329.177 213.741 326.338 216.579C323.5 219.418 319.651 221.015 315.636 221.019Z" fill="#FF3B4B"/>
<path id="Vector_7" d="M315.636 336.738H220.877C216.741 336.733 212.775 335.088 209.85 332.164C206.926 329.239 205.281 325.273 205.276 321.137V276.35C205.281 272.214 206.926 268.248 209.85 265.324C212.775 262.399 216.741 260.754 220.877 260.749H315.636C319.773 260.754 323.738 262.399 326.663 265.324C329.587 268.248 331.232 272.214 331.237 276.35V321.137C331.232 325.273 329.587 329.239 326.663 332.164C323.738 335.088 319.773 336.733 315.636 336.738Z" fill="#718096"/>
<path id="Vector_8" d="M154.123 336.738H59.3635C55.2274 336.733 51.262 335.088 48.3373 332.164C45.4126 329.239 43.7675 325.273 43.7628 321.137V276.35C43.7675 272.214 45.4126 268.248 48.3373 265.324C51.262 262.399 55.2274 260.754 59.3635 260.749H154.123C158.259 260.754 162.225 262.399 165.15 265.324C168.074 268.248 169.719 272.214 169.724 276.35V321.137C169.719 325.273 168.074 329.239 165.15 332.164C162.225 335.088 158.259 336.733 154.123 336.738Z" fill="#718096"/>
<path id="Vector_9" d="M476.839 336.738H382.079C377.943 336.733 373.977 335.088 371.053 332.164C368.128 329.239 366.483 325.273 366.478 321.137V276.35C366.483 272.214 368.128 268.248 371.053 265.324C373.977 262.399 377.943 260.754 382.079 260.749H476.839C480.975 260.754 484.94 262.399 487.865 265.324C490.79 268.248 492.435 272.214 492.44 276.35V321.137C492.435 325.273 490.79 329.239 487.865 332.164C484.94 335.088 480.975 336.733 476.839 336.738Z" fill="#718096"/>
<path id="Vector_10" d="M476.839 221.109H382.079C377.943 221.105 373.977 219.46 371.053 216.535C368.128 213.61 366.483 209.645 366.478 205.509V160.721C366.483 156.585 368.128 152.62 371.053 149.695C373.977 146.77 377.943 145.125 382.079 145.12H476.839C480.975 145.125 484.94 146.77 487.865 149.695C490.79 152.62 492.435 156.585 492.44 160.721V205.509C492.435 209.645 490.79 213.61 487.865 216.535C484.94 219.46 480.975 221.105 476.839 221.109Z" fill="#718096"/>
<path id="Vector_11" d="M107.054 209.179C121.245 209.179 132.749 197.675 132.749 183.484C132.749 169.293 121.245 157.789 107.054 157.789C92.8631 157.789 81.3589 169.293 81.3589 183.484C81.3589 197.675 92.8631 209.179 107.054 209.179Z" fill="white"/>
<path id="Vector_12" d="M104.507 193.286C103.929 193.287 103.366 193.1 102.904 192.753L102.875 192.732L96.8365 188.109C96.5564 187.894 96.3213 187.627 96.1446 187.322C95.9679 187.017 95.853 186.68 95.8066 186.331C95.7602 185.981 95.7831 185.626 95.874 185.285C95.9649 184.945 96.122 184.626 96.3365 184.346C96.5509 184.066 96.8183 183.831 97.1236 183.655C97.4288 183.478 97.7658 183.364 98.1153 183.318C98.4648 183.271 98.82 183.295 99.1605 183.386C99.501 183.477 99.8202 183.635 100.1 183.849L104.011 186.849L113.254 174.794C113.469 174.515 113.736 174.28 114.041 174.104C114.346 173.927 114.683 173.813 115.032 173.767C115.381 173.721 115.736 173.744 116.077 173.835C116.417 173.926 116.736 174.083 117.016 174.298L116.958 174.376L117.017 174.299C117.581 174.732 117.95 175.372 118.043 176.077C118.136 176.782 117.946 177.495 117.514 178.06L106.642 192.239C106.39 192.566 106.067 192.83 105.697 193.012C105.326 193.193 104.919 193.287 104.507 193.286Z" fill="#FF3B4B"/>
<path id="Vector_13" d="M268.715 208.81C282.907 208.81 294.411 197.306 294.411 183.115C294.411 168.924 282.907 157.42 268.715 157.42C254.524 157.42 243.02 168.924 243.02 183.115C243.02 197.306 254.524 208.81 268.715 208.81Z" fill="white"/>
<path id="Vector_14" d="M266.168 192.917C265.59 192.918 265.028 192.731 264.565 192.384L264.536 192.363L258.498 187.74C257.933 187.307 257.563 186.667 257.47 185.962C257.376 185.257 257.567 184.543 258 183.978C258.433 183.414 259.072 183.044 259.777 182.95C260.483 182.857 261.196 183.048 261.761 183.48L265.672 186.48L274.915 174.425C275.13 174.146 275.397 173.911 275.702 173.735C276.007 173.559 276.344 173.444 276.693 173.398C277.043 173.352 277.398 173.375 277.738 173.466C278.078 173.557 278.397 173.714 278.677 173.929L278.619 174.007L278.678 173.93C279.242 174.363 279.611 175.003 279.704 175.708C279.797 176.413 279.607 177.126 279.175 177.691L268.303 191.87C268.051 192.197 267.728 192.461 267.358 192.643C266.988 192.824 266.581 192.918 266.168 192.917Z" fill="#FF3B4B"/>
<path id="Vector_15" d="M442.376 304.367C443.221 303.444 443.852 302.347 444.226 301.154C444.601 299.96 444.709 298.699 444.543 297.459C444.377 296.219 443.942 295.031 443.267 293.978C442.592 292.924 441.695 292.032 440.638 291.363L426.293 214.765L408.847 221.235L428.433 294.493C427.427 296.344 427.135 298.498 427.611 300.55C428.088 302.601 429.301 304.406 431.019 305.623C432.738 306.84 434.843 307.385 436.937 307.153C439.03 306.922 440.965 305.93 442.376 304.367Z" fill="#FFB8B8"/>
<path id="Vector_16" d="M303.167 187.487C303.211 187.963 303.216 188.441 303.185 188.918L337.106 215.025L346.725 211.075L354.584 224.813L338.234 233.461C336.914 234.16 335.402 234.411 333.926 234.177C332.45 233.944 331.09 233.237 330.049 232.165L296.143 197.209C294.349 197.614 292.473 197.462 290.766 196.775C289.06 196.088 287.603 194.898 286.589 193.362C285.575 191.827 285.053 190.019 285.092 188.18C285.131 186.34 285.729 184.556 286.806 183.065C287.883 181.573 289.389 180.445 291.124 179.831C292.858 179.216 294.738 179.144 296.514 179.624C298.29 180.104 299.878 181.114 301.067 182.518C302.255 183.923 302.988 185.656 303.167 187.487Z" fill="#FFB8B8"/>
<path id="Vector_17" d="M382.416 440.322H372.652L368.006 410.624L382.418 410.625L382.416 440.322Z" fill="#FFB8B8"/>
<path id="Vector_18" d="M384.906 449.788L353.421 449.787V449.388C353.421 447.779 353.738 446.185 354.354 444.699C354.97 443.212 355.873 441.861 357.011 440.723C358.149 439.585 359.5 438.682 360.986 438.066C362.473 437.451 364.067 437.134 365.676 437.134L384.907 437.135L384.906 449.788Z" fill="white"/>
<path id="Vector_19" d="M419.053 440.322H409.289L404.643 410.624L419.055 410.625L419.053 440.322Z" fill="#FFB8B8"/>
<path id="Vector_20" d="M421.543 449.788L390.059 449.787V449.388C390.059 447.779 390.376 446.185 390.991 444.699C391.607 443.212 392.51 441.861 393.648 440.723C394.786 439.585 396.137 438.682 397.624 438.066C399.11 437.451 400.704 437.134 402.313 437.134L421.544 437.135L421.543 449.788Z" fill="white"/>
<path id="Vector_21" d="M370.624 434.453C369.733 434.453 368.873 434.121 368.214 433.521C367.554 432.921 367.143 432.097 367.06 431.209L358.551 316.766L358.953 316.734L417.51 311.921L417.525 312.337L422.18 430.89C422.198 431.372 422.119 431.852 421.947 432.302C421.775 432.753 421.514 433.164 421.18 433.511C420.845 433.858 420.444 434.134 420.001 434.322C419.557 434.511 419.08 434.608 418.598 434.608H407.117C406.26 434.612 405.43 434.307 404.779 433.749C404.129 433.191 403.701 432.417 403.575 431.569L387.983 335.799C387.968 335.7 387.916 335.61 387.838 335.548C387.759 335.486 387.66 335.455 387.561 335.462C387.461 335.47 387.367 335.514 387.299 335.587C387.231 335.66 387.192 335.756 387.191 335.856L386.484 430.415C386.477 431.328 386.121 432.204 385.491 432.865C384.86 433.525 384.001 433.92 383.089 433.969L370.816 434.447C370.752 434.451 370.688 434.453 370.624 434.453Z" fill="#2F2E41"/>
<path id="Vector_22" d="M380.619 172.135C391.422 172.135 400.18 163.377 400.18 152.573C400.18 141.77 391.422 133.012 380.619 133.012C369.815 133.012 361.057 141.77 361.057 152.573C361.057 163.377 369.815 172.135 380.619 172.135Z" fill="#FFB8B8"/>
<path id="Vector_23" d="M384.406 324.065C375.855 324.04 367.347 322.877 359.103 320.607C358.31 320.376 357.621 319.879 357.151 319.199C356.682 318.519 356.461 317.698 356.526 316.874C359.16 277.296 359.779 246.581 354.241 225.33C351.881 216.273 352.952 206.733 357.181 199.158C363.545 187.759 375.241 180.82 387.717 181.06C388.313 181.071 388.916 181.092 389.524 181.124C408.458 182.099 423.212 199.228 422.413 219.308L418.604 315.017C418.591 315.715 418.37 316.394 417.971 316.967C417.572 317.54 417.012 317.982 416.362 318.238C406.146 322.081 395.321 324.055 384.406 324.065Z" fill="#3F3D56"/>
<path id="Vector_24" d="M357.46 232.679L342.807 214.723C342.39 214.212 342.088 213.617 341.922 212.979C341.756 212.341 341.729 211.674 341.843 211.025C341.958 210.376 342.211 209.759 342.585 209.216C342.96 208.673 343.447 208.217 344.013 207.88L363.862 196.052C366.488 193.933 369.847 192.943 373.203 193.297C376.558 193.651 379.636 195.321 381.762 197.942C383.887 200.562 384.887 203.919 384.542 207.275C384.196 210.631 382.534 213.714 379.919 215.846L364.406 232.869C363.962 233.356 363.418 233.742 362.811 234C362.204 234.258 361.549 234.382 360.889 234.364C360.23 234.346 359.583 234.186 358.991 233.895C358.399 233.604 357.877 233.189 357.46 232.679Z" fill="#3F3D56"/>
<path id="Vector_25" d="M403.555 230.425C402.953 230.156 402.417 229.76 401.982 229.264C401.547 228.769 401.224 228.185 401.035 227.553L394.439 205.487C393.007 202.432 392.845 198.933 393.989 195.758C395.133 192.584 397.49 189.993 400.542 188.553C403.594 187.114 407.092 186.943 410.27 188.08C413.447 189.216 416.044 191.566 417.491 194.614L430.248 213.879C430.612 214.429 430.853 215.051 430.955 215.702C431.057 216.354 431.017 217.02 430.839 217.655C430.66 218.289 430.347 218.878 429.92 219.381C429.494 219.884 428.964 220.289 428.367 220.569L407.377 230.394C406.779 230.674 406.129 230.821 405.469 230.827C404.81 230.832 404.157 230.695 403.555 230.425Z" fill="#3F3D56"/>
<path id="Vector_26" d="M390.285 168.624L375.785 165.305C374.289 164.963 372.492 164.31 372.285 162.79C372.006 160.747 374.946 159.323 374.675 157.279C374.412 155.3 371.734 155.044 369.824 154.46C368.046 153.836 366.58 152.545 365.736 150.859C364.893 149.173 364.739 147.225 365.306 145.428C363.24 148.34 358.519 148.589 355.839 146.23C353.159 143.871 352.645 139.591 354.255 136.403C355.124 134.838 356.351 133.5 357.835 132.498C359.319 131.496 361.019 130.858 362.796 130.637C366.369 130.232 369.981 130.905 373.168 132.57C373.381 130.314 376.198 129.399 378.465 129.379C383.173 129.434 387.747 130.955 391.55 133.731C395.354 136.507 398.197 140.399 399.685 144.867C402.466 153.829 400.606 163.653 392.824 168.896L390.285 168.624Z" fill="#2F2E41"/>
<path id="Vector_27" d="M536.339 450H232.888C232.676 450 232.474 449.916 232.324 449.767C232.175 449.617 232.091 449.415 232.091 449.204C232.091 448.992 232.175 448.79 232.324 448.64C232.474 448.491 232.676 448.407 232.888 448.407H536.339C536.55 448.407 536.753 448.491 536.902 448.64C537.051 448.79 537.135 448.992 537.135 449.204C537.135 449.415 537.051 449.617 536.902 449.767C536.753 449.916 536.55 450 536.339 450Z" fill="#718096"/>
</g>
<defs>
<clipPath id="clip0_25_382">
<rect width="536.814" height="450" fill="white" transform="translate(0.185852)"/>
</clipPath>
</defs>
</svg>
